<?xml version="1.0" encoding="UTF-8"?>
<svg xmlns="http://www.w3.org/2000/svg" width="1600" height="900" viewBox="0 0 1600 900">
  <defs>
    <linearGradient id="g" x1="0" y1="0" x2="1" y2="1">
      <stop offset="0" stop-color="#070B1E"/>
      <stop offset="0.55" stop-color="#0B1A3A"/>
      <stop offset="1" stop-color="#132B4A"/>
    </linearGradient>
    <filter id="softGlow" x="-30%" y="-30%" width="160%" height="160%">
      <feGaussianBlur stdDeviation="6" result="b"/>
      <feColorMatrix in="b" type="matrix" values="1 0 0 0 0  0 1 0 0 0  0 0 1 0 0  0 0 0 0.55 0" result="c"/>
      <feMerge>
        <feMergeNode in="c"/>
        <feMergeNode in="SourceGraphic"/>
      </feMerge>
    </filter>
    <pattern id="grid" width="80" height="80" patternUnits="userSpaceOnUse">
      <path d="M80 0H0V80" fill="none" stroke="#6EE7FF" stroke-opacity="0.06" stroke-width="1"/>
      <path d="M40 0V80M0 40H80" fill="none" stroke="#A78BFA" stroke-opacity="0.045" stroke-width="1"/>
    </pattern>
  </defs>

  <rect width="1600" height="900" fill="url(#g)"/>
  <rect width="1600" height="900" fill="url(#grid)"/>

  <!-- Soft blobs -->
  <g opacity="0.9" filter="url(#softGlow)">
    <circle cx="330" cy="240" r="210" fill="#60A5FA" fill-opacity="0.14"/>
    <circle cx="1250" cy="210" r="260" fill="#A78BFA" fill-opacity="0.13"/>
    <circle cx="1140" cy="720" r="290" fill="#34D399" fill-opacity="0.08"/>
  </g>

  <!-- Circuit-like traces -->
  <g fill="none" stroke-linecap="round" stroke-linejoin="round" filter="url(#softGlow)">
    <path d="M120 620H420V520H650" stroke="#6EE7FF" stroke-opacity="0.18" stroke-width="2"/>
    <path d="M240 300H520V240H820" stroke="#A78BFA" stroke-opacity="0.16" stroke-width="2"/>
    <path d="M980 560H1200V420H1460" stroke="#60A5FA" stroke-opacity="0.14" stroke-width="2"/>
    <path d="M880 220V320H1020V420" stroke="#34D399" stroke-opacity="0.12" stroke-width="2"/>

    <!-- Nodes -->
    <g fill="#E0F2FE" fill-opacity="0.55" stroke="none">
      <circle cx="420" cy="620" r="4"/>
      <circle cx="420" cy="520" r="4"/>
      <circle cx="650" cy="520" r="4"/>
      <circle cx="520" cy="300" r="4"/>
      <circle cx="520" cy="240" r="4"/>
      <circle cx="820" cy="240" r="4"/>
      <circle cx="1200" cy="560" r="4"/>
      <circle cx="1200" cy="420" r="4"/>
      <circle cx="1460" cy="420" r="4"/>
      <circle cx="880" cy="320" r="4"/>
      <circle cx="1020" cy="320" r="4"/>
      <circle cx="1020" cy="420" r="4"/>
    </g>
  </g>

  <!-- Vignette -->
  <rect width="1600" height="900" fill="#000" opacity="0.22"/>
</svg>
